# AST/ASF file generated using VICON BodyLanguage
# -----------------------------------------------
:version 1.10
:name VICON
:units
  mass 1.0
  length 0.45
  angle deg
:documentation
   .ast/.asf automatically generated from VICON data using
   VICON BodyBuilder and BodyLanguage model FoxedUp or BRILLIANT.MOD
:root
   order TX TY TZ RX RY RZ
   axis XYZ
   position 0 0 0  
   orientation 0 0 0 
:bonedata
  begin
     id 1 
     name lhipjoint
     direction 0.678564 -0.644259 0.352817 
     length 2.99514 
     axis 0 0 0  XYZ
  end
  begin
     id 2 
     name lfemur
     direction 0.34202 -0.939693 0  
     length 7.29983  
     axis 0 0 20  XYZ
    dof rx ry rz
    limits (-160.0 20.0)
           (-70.0 70.0)
           (-60.0 70.0)
  end
  begin
     id 3 
     name ltibia
     direction 0.34202 -0.939693 0   
     length 8.59502   
     axis 0 0 20   XYZ
    dof rx
    limits (-10.0 170.0)
  end
  begin
     id 4 
     name lfoot
     direction 0.256607 -0.705022 0.661133   
     length 2.92136   
     axis -90 7.62852e-016 20   XYZ
    dof rx rz
    limits (-45.0 90.0)
           (-70.0 20.0)
  end
  begin
     id 5 
     name ltoes
     direction 1.53673e-011 -4.22167e-011 1   
     length 1.31421   
     axis -90 7.62852e-016 20   XYZ
    dof rx
    limits (-90.0 20.0)
  end
  begin
     id 6 
     name rhipjoint
     direction -0.664671 -0.655307 0.358867   
     length 2.94464  
     axis 0 0 0  XYZ 
  end
  begin
     id 7 
     name rfemur
     direction -0.34202 -0.939693 0   
     length 7.1902   
     axis 0 0 -20   XYZ
    dof rx ry rz
    limits (-160.0 20.0)
           (-70.0 70.0)
           (-70.0 60.0)
  end
  begin
     id 8 
     name rtibia
     direction -0.342306 -0.939589 0   
     length 7.92304   
     axis 0 0 -20   XYZ
    dof rx
    limits (-10.0 170.0)
 end
 begin
     id 9 
     name rfoot
     direction -0.135083 -0.371136 0.9187   
     length 2.14777  
     axis -90 -7.62852e-016 -20   XYZ
    dof rx rz
    limits (-45.0 90.0)
           (-20.0 70.0)
  end
  begin
     id 10 
     name rtoes
     direction -1.53535e-011 -4.21537e-011 1   
     length 1.05997   
     axis -90 -7.62852e-016 -20   XYZ
    dof rx
    limits (-90.0 20.0)
  end
  begin
     id 11 
     name lowerback
     direction -0.0195507 0.995133 0.0965771   
     length 2.09792   
     axis 0 0 0   XYZ
    dof rx ry rz
    limits (-20.0 45.0)
           (-30.0 30.0)
           (-30.0 30.0)
  end
  begin
     id 12 
     name upperback
     direction 0.00551419 0.999637 0.0263729   
     length 2.10514   
     axis 0 0 0   XYZ
    dof rx ry rz
    limits (-20.0 45.0)
           (-30.0 30.0)
           (-30.0 30.0)
  end
  begin
     id 13 
     name thorax
     direction 0.0138853 0.999728 -0.0187549   
     length 2.12411   
     axis 0 0 0   XYZ
    dof rx ry rz
    limits (-20.0 45.0)
           (-30.0 30.0)
           (-30.0 30.0)
  end
  begin
     id 14 
     name lowerneck
     direction 0.00575564 0.995441 0.0952053   
     length 2.98955   
     axis 0 0 0   XYZ
    dof rx ry rz
    limits (-20.0 45.0)
           (-30.0 30.0)
           (-30.0 30.0)
  end
  begin
     id 15 
     name upperneck
     direction 0.0362743 0.998452 -0.0421753   
     length 3.03688   
     axis 0 0 0   XYZ
    dof rx ry rz
    limits (-20.0 45.0)
           (-30.0 30.0)
           (-30.0 30.0)
  end
  begin
     id 16
     name head
     direction -0.0138164 0.799054 0.6011  
     length 1.47017  
     axis 0 0 0   XYZ
    dof rx ry rz
    limits (-20.0 45.0)
           (-30.0 30.0)
           (-30.0 30.0)
  end
  begin
     id 17 
     name lclavicle
     direction 0.925636 0.378361 -0.006363  
     length 3.33831  
     axis 0 0 0   XYZ
    dof ry rz
    limits (-20.0 10.0)
           (0.0 20.0)
  end
  begin
     id 18 
     name lhumerus
     direction 1 -4.48983e-011 -5.50319e-028   
     length 4.79344   
     axis -180 -30 -90   XYZ
    dof rx ry rz
    limits (-60.0 90.0)
           (-90.0 90.0)
           (-90.0 90.0)
  end
  begin
     id 19
     name lradius
     direction 1 -4.48905e-011 9.20478e-027   
     length 2.94221   
     axis -180 -30 -90   XYZ
    dof rx
    limits (-10.0 170.0)
  end
  begin
     id 20
     name lwrist
     direction 1 -4.4898e-011 2.08228e-026   
     length 1.4711   
     axis -1.38353e-014 90 90   XYZ
    dof ry
    limits (-180.0 0.0)
 end
  begin
     id 21 
     name lhand
     direction 1 -4.48957e-011 4.16456e-026   
     length 0.889984   
     axis -2.65735e-014 90 90   XYZ
    dof rx rz
    limits (-90.0 90.0)
           (-45.0 45.0)
  end
  begin
     id 22 
     name lfingers
     direction 1 -4.49044e-011 8.32913e-026   
     length 0.717528   
     axis -5.3147e-014 90 90   XYZ
    dof rx
    limits (0.0 90.0)
  end
  begin
     id 23
     name lthumb
     direction 0.707107 -6.35171e-011 0.707107   
     length 1.03023   
     axis -90 45 2.85299e-015   XYZ
    dof rx rz
    limits (-45.0 45.0)
           (-45.0 45.0)
  end
  begin
     id 24 
     name rclavicle
     direction -0.892514 0.445149 0.0725343   
     length 3.17271  
     axis 0 0 0   XYZ 
    dof ry rz
    limits (-10.0 20.0)
           (-20.0 0.0)
  end
  begin
     id 25 
     name rhumerus
     direction -1 -4.48952e-011 5.59695e-028  
     length 5.4863   
     axis -180 30 90   XYZ
    dof rx ry rz
    limits (-90.0 60.0)
           (-90.0 90.0)
           (-90.0 90.0)
  end
  begin
     id 26 
     name rradius
     direction -1 -4.48963e-011 1.14146e-026   
     length 3.17201   
     axis -180 30 90   XYZ
    dof rx
    limits (-10.0 170.0)
  end
  begin
     id 27 
     name rwrist
     direction -1 -4.49046e-011 2.08228e-026   
     length 1.58601   
     axis -1.38353e-014 -90 -90   XYZ
    dof ry
    limits (-180.0 0.0)
  end
  begin
     id 28
     name rhand
     direction -1 -4.48815e-011 4.16456e-026   
     length 0.874513   
     axis -2.65735e-014 -90 -90   XYZ
    dof rx rz
    limits (-90.0 90.0)
           (-45.0 45.0)
  end
  begin
     id 29
     name rfingers
     direction -1 -4.48918e-011 8.32913e-026   
     length 0.705055   
     axis -5.3147e-014 -90 -90   XYZ
    dof rx
    limits (0.0 90.0)
  end
  begin
     id 30
     name rthumb
     direction -0.707107 -6.34858e-011 0.707107   
     length 1.01232   
     axis -90 -45 -2.85299e-015   XYZ
    dof rx rz
    limits (-45.0 45.0)
           (-45.0 45.0)
  end
:hierarchy
  begin
    root lhipjoint rhipjoint lowerback
    lhipjoint lfemur
    lfemur ltibia
    ltibia lfoot
    lfoot ltoes
    rhipjoint rfemur
    rfemur rtibia
    rtibia rfoot
    rfoot rtoes
    lowerback upperback
    upperback thorax
    thorax lowerneck lclavicle rclavicle
    lowerneck upperneck
    upperneck head
    lclavicle lhumerus
    lhumerus lradius
    lradius lwrist
    lwrist lhand lthumb
    lhand lfingers
    rclavicle rhumerus
    rhumerus rradius
    rradius rwrist
    rwrist rhand rthumb
    rhand rfingers
  end

#!OML:ASF F:\VICON\USERDATA\INSTALL\rory3\rory3.ASF
:FULLY-SPECIFIED
:DEGREES
583
root 3.50843 18.4822 -0.68073 -5.76104 88.4596 -19.4265
lowerback -12.14 -0.886407 -0.631618
upperback -4.88697 -0.953022 2.12224
thorax 1.7401 -0.362801 2.43713
lowerneck -21.1741 -10.0334 2.42475
upperneck 3.37528 40.5362 2.56583
head 28.3881 38.123 179.925
rclavicle 3.3048e-015 -7.95139e-016
rhumerus -43.1656 32.7536 -84.4035
rradius 107.942
rwrist -24.9517
rhand -16.0013 -12.0933
rfingers 7.12502
rthumb 10.1989 -41.8261
lclavicle 3.3048e-015 -7.95139e-016
lhumerus -46.9192 -27.8672 94.2579
lradius 103.153
lwrist 28.3923
lhand -20.1373 -0.413069
lfingers 7.12502
lthumb 6.20727 29.476
rfemur -12.0305 17.4533 18.1972
rtibia 11.7298
rfoot -18.5704 -18.4854
rtoes -13.5541
lfemur -12.7929 -4.05807 -21.9966
ltibia 15.8744
lfoot -2.92712 4.64312
ltoes -9.93566
584
root 3.50443 18.4819 -0.679915 -3.92533 88.453 -17.5592
lowerback -12.0904 -0.878912 -0.675177
upperback -4.87262 -0.939274 2.09513
thorax 1.72785 -0.356529 2.43557
lowerneck -21.1526 -10.0362 2.41957
upperneck 3.3837 40.5163 2.57906
head 28.3665 38.1145 179.887
rclavicle 9.90196e-015 -1.86858e-014
rhumerus -42.8964 32.7306 -84.3148
rradius 107.936
rwrist -24.9716
rhand -16.0583 -12.0462
rfingers 7.12502
rthumb 10.144 -41.7817
lclavicle 9.90196e-015 -1.86858e-014
lhumerus -46.6808 -28.1568 94.2249
lradius 103.095
lwrist 28.3531
lhand -20.3243 -0.40346
lfingers 7.12502
lthumb 6.02674 29.4908
rfemur -12.025 17.4539 18.1523
rtibia 11.7501
rfoot -18.5467 -18.4753
rtoes -13.6501
lfemur -12.7586 -4.02168 -22.0505
ltibia 15.8481
lfoot -2.9998 4.6466
ltoes -9.85616
585
root 3.50014 18.4818 -0.67877 -1.839 88.4296 -15.4513
lowerback -12.0477 -0.8688 -0.734373
upperback -4.86873 -0.91978 2.07675
thorax 1.70845 -0.346737 2.45273
lowerneck -21.1221 -10.0273 2.40116
upperneck 3.42014 40.6029 2.60758
head 28.4005 38.2258 179.871
rclavicle 6.58474e-015 3.57812e-015
rhumerus -42.6188 32.7662 -84.2535
rradius 107.905
rwrist -24.7699
rhand -16.2034 -12.0916
rfingers 7.12502
rthumb 10.0039 -41.8338
lclavicle 6.58474e-015 3.57812e-015
lhumerus -46.4599 -28.4126 94.2152
lradius 103.049
lwrist 28.3877
lhand -20.5177 -0.385951
lfingers 7.12502
lthumb 5.83997 29.5136
rfemur -12.0627 17.4687 18.0991
rtibia 11.8054
rfoot -18.522 -18.5064
rtoes -13.5645
lfemur -12.7217 -4.02433 -22.1008
ltibia 15.7992
lfoot -2.98212 4.57577
ltoes -9.91183
586
root 3.49593 18.483 -0.678489 -2.67844 88.4346 -16.284
lowerback -12.0635 -0.857149 -0.702164
upperback -4.83155 -0.910062 2.0753
thorax 1.75479 -0.343521 2.43406
lowerneck -21.1333 -10.0388 2.39718
upperneck 3.40977 40.5725 2.60073
head 28.3954 38.2203 179.878
rclavicle 1.81391e-015 9.93923e-015
rhumerus -42.2942 32.764 -84.1748
rradius 107.895
rwrist -24.5063
rhand -16.3298 -12.2445
rfingers 7.12502
rthumb 9.88197 -41.9926
lclavicle 1.81391e-015 9.93923e-015
lhumerus -46.128 -28.6303 94.1488
lradius 102.992
lwrist 28.4678
lhand -20.5939 -0.375289
lfingers 7.12502
lthumb 5.76643 29.5262
rfemur -12.1022 17.5141 18.1144
rtibia 11.8353
rfoot -18.4849 -18.5486
rtoes -13.7232
lfemur -12.7112 -4.03769 -22.0695
ltibia 15.7836
lfoot -2.97661 4.56418
ltoes -10.0415
587
root 3.49159 18.4838 -0.677686 -1.82932 88.4597 -15.4186
lowerback -12.0692 -0.84882 -0.724731
upperback -4.78308 -0.899151 2.04876
thorax 1.80784 -0.339997 2.42038
lowerneck -21.163 -10.0766 2.44406
upperneck 3.36848 40.4231 2.57948
head 28.3482 38.0679 179.888
rclavicle 1.35422e-015 1.94809e-014
rhumerus -41.9506 32.7238 -84.0796
rradius 107.886
rwrist -24.3705
rhand -16.5024 -12.2989
rfingers 7.12502
rthumb 9.71546 -42.0548
lclavicle 1.35422e-015 1.94809e-014
lhumerus -45.7827 -28.8681 94.0787
lradius 102.908
lwrist 28.5281
lhand -20.5619 -0.433754
lfingers 7.12502
lthumb 5.79732 29.4669
rfemur -12.0904 17.4837 18.0925
rtibia 11.8201
rfoot -18.4259 -18.529
rtoes -13.8291
lfemur -12.7165 -4.03403 -22.0998
ltibia 15.8042
lfoot -2.97421 4.58589
ltoes -9.9664
588
root 3.48456 18.4832 -0.675263 -3.65943 88.4641 -17.2519
lowerback -11.986 -0.845414 -0.697772
upperback -4.8072 -0.896933 2.06152
thorax 1.73731 -0.33812 2.4193
lowerneck -21.1267 -10.0943 2.4496
upperneck 3.37085 40.373 2.58106
head 28.3207 38.0016 179.875
rclavicle 1.88845e-015 -2.54444e-014
rhumerus -41.7412 32.7733 -84.0224
rradius 107.895
rwrist -24.2993
rhand -16.651 -12.2207
rfingers 7.12502
rthumb 9.57213 -41.9833
lclavicle 1.88845e-015 -2.54444e-014
lhumerus -45.6327 -29.149 94.1342
lradius 102.836
lwrist 28.4183
lhand -20.706 -0.501909
lfingers 7.12502
lthumb 5.65822 29.4025
rfemur -12.0888 17.4419 18.1569
rtibia 11.7736
rfoot -18.4093 -18.51
rtoes -13.8812
lfemur -12.7823 -3.97863 -22.0425
ltibia 15.8484
lfoot -3.03534 4.59782
ltoes -9.82807
589
root 3.47928 18.4827 -0.673579 -5.46791 88.4544 -19.055
lowerback -11.9007 -0.862225 -0.681969
upperback -4.8391 -0.920311 2.10361
thorax 1.65928 -0.348342 2.45179
lowerneck -21.0683 -10.0887 2.44403
upperneck 3.38873 40.3858 2.5844
head 28.3108 37.9629 179.873
rclavicle 8.3738e-015 -2.74323e-014
rhumerus -41.5472 32.8922 -83.9766
rradius 107.893
rwrist -24.2405
rhand -16.7082 -12.1072
rfingers 7.12502
rthumb 9.51694 -41.8723
lclavicle 8.3738e-015 -2.74323e-014
lhumerus -45.5473 -29.3394 94.2426
lradius 102.753
lwrist 28.2258
lhand -20.8575 -0.657989
lfingers 7.12502
lthumb 5.51197 29.2503
rfemur -12.0564 17.5175 18.2138
rtibia 11.7156
rfoot -18.4092 -18.5733
rtoes -13.8863
lfemur -12.8174 -3.99128 -21.9758
ltibia 15.874
lfoot -3.02269 4.57923
ltoes -9.86909
590
root 3.47694 18.4845 -0.67404 -5.73588 88.4579 -19.3051
lowerback -11.8552 -0.853879 -0.658109
upperback -4.84789 -0.911452 2.09574
thorax 1.62455 -0.343937 2.43157
lowerneck -21.0393 -10.1116 2.45651
upperneck 3.39767 40.384 2.58563
head 28.3333 37.9739 179.918
rclavicle 4.22417e-016 -1.35174e-014
rhumerus -41.3342 32.9225 -83.9324
rradius 107.902
rwrist -24.2022
rhand -16.6994 -12.1068
rfingers 7.12502
rthumb 9.52538 -41.8715
lclavicle 4.22417e-016 -1.35174e-014
lhumerus -45.4718 -29.5782 94.3503
lradius 102.71
lwrist 27.8773
lhand -20.9191 -0.51831
lfingers 7.12502
lthumb 5.45247 29.3915
rfemur -11.9837 17.6533 18.2076
rtibia 11.6229
rfoot -18.3818 -18.7066
rtoes -13.9461
lfemur -12.8098 -3.98408 -21.972
ltibia 15.8901
lfoot -3.03834 4.56938
ltoes -9.92729
591
root 3.47559 18.4875 -0.674568 -5.72478 88.464 -19.2974
lowerback -11.8583 -0.86403 -0.653763
upperback -4.83774 -0.926151 2.10109
thorax 1.6375 -0.351647 2.4327
lowerneck -21.0325 -10.127 2.47039
upperneck 3.37704 40.3258 2.55876
head 28.3213 37.8844 179.967
rclavicle 2.12451e-014 -7.55382e-015
rhumerus -41.0813 32.9888 -83.8699
rradius 107.895
rwrist -24.1395
rhand -16.7136 -12.0787
rfingers 7.12502
rthumb 9.51169 -41.844
lclavicle 2.12451e-014 -7.55382e-015
lhumerus -45.3824 -29.8422 94.4808
lradius 102.675
lwrist 27.3237
lhand -21.2066 -0.209008
lfingers 7.12502
lthumb 5.17488 29.7078
rfemur -11.9539 17.9028 18.1702
rtibia 11.5403
rfoot -18.3758 -18.9107
rtoes -13.8049
lfemur -12.8029 -3.98235 -21.9743
ltibia 15.8755
lfoot -3.07871 4.58711
ltoes -10.0037
